<svg version="1.1" xmlns="http://www.w3.org/2000/svg" width="512" height="512">
<path d="M0 0 C1.09162414 -0.00872064 1.09162414 -0.00872064 2.20530128 -0.01761746 C4.64518032 -0.03222159 7.084054 -0.01833099 9.52392578 -0.00457001 C11.29024775 -0.00917877 13.05656588 -0.01553152 14.82287598 -0.02347898 C19.677714 -0.04019879 24.53223808 -0.03191387 29.38707733 -0.01953411 C34.62233116 -0.01049681 39.8575304 -0.02444679 45.09277344 -0.0354538 C55.34904982 -0.0532577 65.60520924 -0.04939069 75.86149025 -0.03780323 C84.19559312 -0.02877655 92.52966317 -0.0275416 100.86376953 -0.0318985 C102.04907887 -0.03251143 103.2343882 -0.03312436 104.455616 -0.03375587 C106.86340842 -0.03503475 109.27120083 -0.0363316 111.67899323 -0.03764623 C134.26678696 -0.04905752 156.8545158 -0.03592972 179.44229889 -0.01444477 C198.83151952 0.00342669 218.22064437 0.00032274 237.60986328 -0.01811981 C260.11579974 -0.03951683 282.6216793 -0.04795883 305.12762451 -0.03567076 C307.52665201 -0.03439654 309.92567952 -0.03313905 312.32470703 -0.0318985 C314.09534452 -0.03097285 314.09534452 -0.03097285 315.90175247 -0.03002849 C324.22764703 -0.02657209 332.55350555 -0.0324102 340.87939453 -0.04181671 C351.02330232 -0.05302508 361.16708627 -0.05002109 371.31097984 -0.02869374 C376.48841545 -0.01816771 381.66564445 -0.01408797 386.84307861 -0.02729034 C391.58038077 -0.03918786 396.3172843 -0.03269532 401.05455017 -0.01138014 C402.77047836 -0.00690286 404.48644006 -0.0092055 406.2023468 -0.01888329 C408.53153822 -0.03101482 410.85935721 -0.01860661 413.18847656 0 C414.48310822 0.00064941 415.77773987 0.00129882 417.11160278 0.00196791 C422.40234075 0.76367792 425.44790277 3.21170545 428.93603516 7.14203644 C431.15436375 11.63878969 431.17047746 15.3351335 431.12548828 20.28461456 C431.12931519 21.21632477 431.13314209 22.14803497 431.13708496 23.10797882 C431.13979825 25.07132808 431.13247804 27.03471384 431.11572266 28.99799347 C431.09430453 31.99409737 431.11554401 34.98780352 431.14111328 37.98383331 C431.1384699 39.89659899 431.13334471 41.80936319 431.12548828 43.72211456 C431.13358521 44.61289703 431.14168213 45.5036795 431.15002441 46.42145538 C431.0672288 51.94442565 430.26736555 55.12061749 426.59423828 59.50336456 C418.17084967 67.29499903 411.2036047 64.50336456 398.59423828 64.50336456 C398.59423828 109.38336456 398.59423828 154.26336456 398.59423828 200.50336456 C405.19423828 200.50336456 411.79423828 200.50336456 418.59423828 200.50336456 C428.16995772 205.29122428 428.16995772 205.29122428 430.59423828 210.50336456 C431.10231416 213.37950563 431.10189833 216.16449871 431.04833984 219.07904816 C431.04892395 219.91873138 431.04950806 220.75841461 431.05010986 221.62354279 C431.04733567 224.38339136 431.01627578 227.14214349 430.98486328 229.90180206 C430.97739851 231.8213619 430.97170669 233.74092938 430.9677124 235.66049957 C430.95247466 240.70111049 430.91320882 245.74125689 430.86889648 250.78168488 C430.82790367 255.92973294 430.80969282 261.07785641 430.78955078 266.22602081 C430.74671282 276.31867228 430.67848397 286.41097972 430.59423828 296.50336456 C431.50786133 296.66880768 431.50786133 296.66880768 432.43994141 296.83759308 C433.24367188 296.99671173 434.04740234 297.15583038 434.87548828 297.31977081 C435.67019531 297.47131622 436.46490234 297.62286163 437.28369141 297.77899933 C441.22546448 299.01476018 443.00967428 301.33727366 445.59423828 304.50336456 C446.86808955 308.32491836 446.71777016 311.91020926 446.69189453 315.89008331 C446.68977211 317.11559654 446.68977211 317.11559654 446.68760681 318.36586761 C446.68201122 320.97423724 446.66945957 323.5825209 446.65673828 326.19086456 C446.65172271 327.95974353 446.6471599 329.72862385 446.64306641 331.49750519 C446.63204324 335.83282475 446.61478166 340.16808008 446.59423828 344.50336456 C447.2805835 344.48668732 447.96692871 344.47001007 448.67407227 344.45282745 C449.57456299 344.43985626 450.47505371 344.42688507 451.40283203 344.41352081 C452.29542725 344.39684357 453.18802246 344.38016632 454.10766602 344.3629837 C457.7334528 344.56767957 460.06500288 345.97412916 462.59423828 348.50336456 C463.182655 355.68204855 463.182655 355.68204855 461.08963776 358.60349607 C457.60504067 361.25648862 454.44775087 361.05614928 450.24206543 361.00672913 C449.3877081 361.01254289 448.53335077 361.01835665 447.65310383 361.02434659 C444.77056963 361.03902428 441.88887661 361.02502522 439.00634766 361.01129913 C436.92684237 361.01590497 434.84734033 361.02225575 432.76784515 361.03020811 C427.03812385 361.04696803 421.30866766 361.03862481 415.57894516 361.02626324 C409.40572018 361.01724227 403.23254197 361.03116776 397.05932617 361.04218292 C385.65985143 361.05897343 374.26048525 361.05747358 362.86101317 361.04653705 C352.33091699 361.03648391 341.80085195 361.03384377 331.27075195 361.03862762 C330.57288863 361.03893316 329.87502531 361.03923871 329.15601462 361.0395535 C326.32332338 361.04079881 323.49063216 361.04207241 320.65794095 361.04339256 C294.07265888 361.05563488 267.48743091 361.04452471 240.90215719 361.02300497 C217.27084273 361.00402184 193.63961448 361.00572032 170.00830078 361.02484894 C143.4723605 361.04625682 116.93646804 361.05476675 90.40052032 361.04239988 C87.57292176 361.04111697 84.74532319 361.03986561 81.91772461 361.03862762 C81.22147246 361.03831132 80.52522031 361.03799501 79.80786961 361.03766911 C69.28311417 361.03311481 58.75839324 361.03844851 48.23364258 361.04854584 C36.26926518 361.05996694 24.30498965 361.05677146 12.34061623 361.03542286 C6.23183026 361.02488328 0.12321963 361.02084009 -5.98556519 361.03401947 C-11.57154806 361.045889 -17.15719214 361.03947095 -22.74314404 361.01810926 C-24.76999671 361.01362004 -26.79687768 361.01596099 -28.82371235 361.02561241 C-31.56741823 361.03768096 -34.30994577 361.02539917 -37.05358887 361.00672913 C-38.24899685 361.02077612 -38.24899685 361.02077612 -39.4685545 361.0351069 C-43.03999167 360.98614151 -45.01832598 360.79954203 -47.89676666 358.59910154 C-50.4385242 355.06903348 -49.88006305 352.77207655 -49.40576172 348.50336456 C-47.59412905 345.82904967 -46.52815095 345.54416097 -43.40576172 344.50336456 C-41.6778082 344.4353349 -39.94740807 344.41840812 -38.21826172 344.44086456 C-37.31720703 344.449888 -36.41615234 344.45891144 -35.48779297 344.46820831 C-34.4571875 344.48561066 -34.4571875 344.48561066 -33.40576172 344.50336456 C-33.42147217 343.4087088 -33.43718262 342.31405304 -33.45336914 341.18622589 C-33.50778282 337.11419825 -33.54215327 333.04220259 -33.57055664 328.9699173 C-33.58561725 327.2094456 -33.60606998 325.44901127 -33.63208008 323.6886673 C-33.66858401 321.15414954 -33.68551526 318.62012905 -33.69873047 316.08539581 C-33.71421432 315.30187241 -33.72969818 314.518349 -33.74565125 313.71108246 C-33.74706541 309.09032056 -33.25194525 306.17907213 -30.40576172 302.50336456 C-26.1152004 298.21280325 -23.35340447 297.15168581 -17.40576172 296.50336456 C-17.41464417 295.43927368 -17.42352661 294.3751828 -17.43267822 293.27884674 C-17.5138112 283.24436511 -17.5737498 273.20995014 -17.61301041 263.17521477 C-17.63387338 258.01639242 -17.66216769 252.85783514 -17.70751953 247.69916534 C-17.75102296 242.71951064 -17.77490853 237.7401107 -17.78527069 232.76028061 C-17.79265396 230.86167771 -17.80707186 228.96308854 -17.82868195 227.06459427 C-17.8577758 224.40244054 -17.86171524 221.74133563 -17.85986328 219.07904816 C-17.88143494 217.90516037 -17.88143494 217.90516037 -17.90344238 216.70755768 C-17.86463815 211.54275661 -17.01009349 208.46118698 -13.40576172 204.50336456 C-5.40576172 200.50336456 -5.40576172 200.50336456 14.59423828 200.50336456 C14.59423828 155.62336456 14.59423828 110.74336456 14.59423828 64.50336456 C8.32423828 64.50336456 2.05423828 64.50336456 -4.40576172 64.50336456 C-11.30145599 61.54806702 -14.11931386 60.07626029 -17.40576172 53.50336456 C-17.51470865 52.14675218 -17.56469319 50.78512304 -17.58276367 49.424263 C-17.59559891 48.58288788 -17.60843414 47.74151276 -17.62165833 46.87464142 C-17.62904526 45.96321381 -17.63643219 45.05178619 -17.64404297 44.11273956 C-17.65211472 43.17536957 -17.66018646 42.23799957 -17.66850281 41.27222443 C-17.68234858 39.28499962 -17.69306852 37.29775097 -17.70092773 35.31049347 C-17.71811484 32.27926911 -17.76199336 29.24914267 -17.80615234 26.21820831 C-17.81628155 24.28722675 -17.82479694 22.35623591 -17.83154297 20.42523956 C-17.84905106 19.52190887 -17.86655914 18.61857819 -17.88459778 17.68787384 C-17.86556522 12.13220179 -17.25264571 8.81136273 -13.40576172 4.50336456 C-8.82351855 0.86185457 -5.82011233 0.00291947 0 0 Z M30.59423828 64.50336456 C30.59423828 70.77336456 30.59423828 77.04336456 30.59423828 83.50336456 C35.26021172 79.50395876 39.71889963 75.53617126 44.03173828 71.19086456 C44.5725 70.65397003 45.11326172 70.1170755 45.67041016 69.56391144 C48.36622737 67.3960363 48.36622737 67.3960363 49.59423828 64.50336456 C43.32423828 64.50336456 37.05423828 64.50336456 30.59423828 64.50336456 Z M71.81608582 65.67351532 C71.0066729 66.49505852 71.0066729 66.49505852 70.1809082 67.33319855 C69.56064255 67.95061417 68.94037689 68.56802979 68.30131531 69.20415497 C67.64903458 69.87910507 66.99675385 70.55405518 66.32470703 71.24945831 C65.64370438 71.93516403 64.96270172 72.62086975 64.26106262 73.32735443 C62.08934562 75.52042742 59.9358832 77.73054335 57.78173828 79.94086456 C56.31213106 81.42697514 54.84144024 82.91201499 53.36962891 84.39594269 C50.69368106 87.10589173 48.01806414 89.81605326 45.3605957 92.54413605 C44.82496506 93.09262711 44.28933441 93.64111816 43.73747253 94.20623016 C42.48403827 95.34022796 42.48403827 95.34022796 42.59423828 96.50336456 C54.47423828 96.50336456 66.35423828 96.50336456 78.59423828 96.50336456 C78.59423828 85.94336456 78.59423828 75.38336456 78.59423828 64.50336456 C73.93559062 64.04526513 73.93559062 64.04526513 71.81608582 65.67351532 Z M334.59423828 64.50336456 C334.59423828 75.06336456 334.59423828 85.62336456 334.59423828 96.50336456 C346.47423828 96.50336456 358.35423828 96.50336456 370.59423828 96.50336456 C365.17294903 90.1785271 359.58276461 84.20433503 353.73510742 78.29413605 C352.59236799 77.13469038 351.45504135 75.96988672 350.32299805 74.79999542 C348.67406155 73.09645051 347.00940911 71.40980897 345.34033203 69.72602081 C344.8381163 69.20113571 344.33590057 68.67625061 343.81846619 68.1354599 C340.37310848 64.71052629 339.79005545 64.50336456 334.59423828 64.50336456 Z M363.59423828 64.50336456 C367.59364409 69.169338 371.56143159 73.62802591 375.90673828 77.94086456 C376.44363281 78.48162628 376.98052734 79.022388 377.53369141 79.57953644 C379.70156655 82.27535366 379.70156655 82.27535366 382.59423828 83.50336456 C382.59423828 77.23336456 382.59423828 70.96336456 382.59423828 64.50336456 C376.32423828 64.50336456 370.05423828 64.50336456 363.59423828 64.50336456 Z M94.59423828 96.50336456 C94.59423828 162.50336456 94.59423828 228.50336456 94.59423828 296.50336456 C99.87423828 296.50336456 105.15423828 296.50336456 110.59423828 296.50336456 C110.62001953 295.05703644 110.64580078 293.61070831 110.67236328 292.12055206 C110.72866011 290.20646004 110.78600708 288.29239871 110.84423828 286.37836456 C110.85841797 285.42703644 110.87259766 284.47570831 110.88720703 283.49555206 C111.09370557 277.54839421 111.69133915 274.06528982 115.59423828 269.50336456 C119.95993634 265.66684203 123.59955792 265.37670946 129.29255676 265.36292267 C129.97692344 265.35995155 130.66129012 265.35698042 131.36639518 265.35391927 C133.66476731 265.34523208 135.96308735 265.34372401 138.26147461 265.34223175 C139.90733451 265.33760359 141.55319333 265.33257893 143.1990509 265.32718658 C147.6743396 265.31406038 152.14961329 265.3076172 156.62491822 265.30317593 C159.42055288 265.30024556 162.21618343 265.29614081 165.01181602 265.29167175 C173.75768922 265.27799624 182.50355305 265.26832985 191.2494362 265.26446986 C201.34716559 265.25998883 211.44475963 265.24243908 221.54244787 265.21346927 C229.34636202 265.19185693 237.15023808 265.18176582 244.95418185 265.18042874 C249.61572037 265.17938039 254.27713166 265.17346622 258.93863869 265.15560913 C263.32417009 265.1391362 267.70947853 265.13696914 272.09502983 265.14574814 C273.70346295 265.14651893 275.31190802 265.14217021 276.92031097 265.13228989 C279.11879555 265.11957819 281.31648953 265.12544229 283.51496887 265.13587189 C284.74443143 265.13440533 285.97389399 265.13293877 287.24061298 265.13142776 C292.28502147 265.69088238 295.51724799 267.30994289 298.90673828 271.06586456 C304.84729249 279.64666509 301.83023496 280.45929489 302.59423828 296.50336456 C318.43423828 296.50336456 334.27423828 296.50336456 350.59423828 296.50336456 C352.9016188 278.65997885 352.9016188 278.65997885 347.28955078 262.23773956 C343.79970971 258.52763907 339.94159518 255.1772917 335.59423828 252.50336456 C335.26423828 252.50336456 334.93423828 252.50336456 334.59423828 252.50336456 C334.5723645 253.57034576 334.5723645 253.57034576 334.55004883 254.65888214 C334.47562822 257.87842788 334.37894828 261.09692975 334.28173828 264.31586456 C334.24790039 265.99519073 334.24790039 265.99519073 334.21337891 267.70844269 C334.17792969 268.78158722 334.14248047 269.85473175 334.10595703 270.96039581 C334.07977295 271.95015411 334.05358887 272.93991241 334.02661133 273.95966339 C333.59423828 276.50336456 333.59423828 276.50336456 332.28100586 278.33026886 C329.47750354 280.28001971 326.88991306 279.79762124 323.59423828 279.50336456 C320.59423828 277.50336456 320.59423828 277.50336456 319.59423828 274.50336456 C319.48983034 272.13229886 319.4477112 269.75836721 319.4360199 267.38503265 C319.43108192 266.65559706 319.42614394 265.92616146 319.42105633 265.17462176 C319.40566645 262.72406504 319.39731668 260.27353456 319.38891602 257.82294464 C319.37933866 256.0688275 319.36932867 254.31471267 319.35891724 252.56060028 C319.33184664 247.79234975 319.31084874 243.02408929 319.29091525 238.2558043 C319.26906899 233.2749667 319.24167365 228.29415975 319.21485901 223.31334686 C319.16491372 213.87864984 319.1199817 204.44393582 319.07683665 195.00920552 C319.02747996 184.26929588 318.97255602 173.52941698 318.91715705 162.78953707 C318.80330881 140.69417349 318.69721094 118.59878169 318.59423828 96.50336456 C306.71423828 96.50336456 294.83423828 96.50336456 282.59423828 96.50336456 C284.22361328 100.75211456 285.85298828 105.00086456 287.53173828 109.37836456 C288.30118774 111.38712677 288.30118774 111.38712677 289.08618164 113.43647003 C289.69151733 115.01259064 289.69151733 115.01259064 290.30908203 116.62055206 C290.72279053 117.69933624 291.13649902 118.77812042 291.56274414 119.88959503 C292.52160301 122.43114324 292.52160301 122.43114324 293.59423828 124.50336456 C294.16438082 130.66090395 294.16438082 130.66090395 292.10986328 133.69672394 C288.55665391 136.24852415 285.24649894 136.07737917 281.03173828 136.03461456 C280.20343506 136.03844147 279.37513184 136.04226837 278.52172852 136.04621124 C276.77342511 136.04892881 275.02508094 136.04157837 273.27685547 136.02484894 C270.60308051 136.00343538 267.93199232 136.024654 265.25830078 136.05023956 C263.55777403 136.04759626 261.85724894 136.04247122 260.15673828 136.03461456 C259.35872803 136.04271149 258.56071777 136.05080841 257.73852539 136.0591507 C254.26655595 136.00059231 251.99455064 135.76520216 249.05908203 133.84516144 C247.12938957 130.76022643 247.13721911 129.10043982 247.59423828 125.50336456 C248.60400391 122.37543488 248.60400391 122.37543488 250.00048828 119.08148956 C250.49677734 117.89168488 250.99306641 116.70188019 251.50439453 115.47602081 C252.03377991 114.2348953 252.56373431 112.99401236 253.09423828 111.75336456 C254.13043595 109.30227343 255.15973641 106.84844013 256.18798828 104.39398956 C256.64882813 103.31149933 257.10966797 102.22900909 257.58447266 101.11371613 C258.71449786 98.65895577 258.71449786 98.65895577 258.59423828 96.50336456 C245.39423828 96.50336456 232.19423828 96.50336456 218.59423828 96.50336456 C223.512406 109.6336193 223.512406 109.6336193 228.71142578 122.63617706 C229.70319045 125.85721808 230.03871384 128.15619151 229.59423828 131.50336456 C228.10546875 133.65033722 228.10546875 133.65033722 225.59423828 135.50336456 C222.61354316 135.90109075 220.01019526 136.06483515 217.03173828 136.03461456 C216.20343506 136.03844147 215.37513184 136.04226837 214.52172852 136.04621124 C212.77342511 136.04892881 211.02508094 136.04157837 209.27685547 136.02484894 C206.60308051 136.00343538 203.93199232 136.024654 201.25830078 136.05023956 C199.55777403 136.04759626 197.85724894 136.04247122 196.15673828 136.03461456 C195.35872803 136.04271149 194.56071777 136.05080841 193.73852539 136.0591507 C190.18376131 135.9991959 188.00276365 135.79181886 185.06323242 133.71625519 C183.12089135 130.79031543 183.36386225 128.57746071 183.9140625 125.18305206 C185.29167784 119.755663 187.48738329 114.65371767 189.65673828 109.50336456 C190.58622849 107.25382073 191.51467506 105.0038453 192.44189453 102.75336456 C193.06076538 101.27609894 193.06076538 101.27609894 193.69213867 99.76898956 C194.65589212 97.75495657 194.65589212 97.75495657 194.59423828 96.50336456 C181.39423828 96.50336456 168.19423828 96.50336456 154.59423828 96.50336456 C156.93813711 103.62588567 156.93813711 103.62588567 159.63720703 110.54633331 C160.16411133 111.81573761 160.16411133 111.81573761 160.70166016 113.11078644 C161.42763794 114.84499376 162.15951062 116.576744 162.89697266 118.30609894 C166.44495907 126.9094723 166.44495907 126.9094723 165.59423828 131.50336456 C164.09887695 133.63495636 164.09887695 133.63495636 161.59423828 135.50336456 C158.61354316 135.90109075 156.01019526 136.06483515 153.03173828 136.03461456 C152.20343506 136.03844147 151.37513184 136.04226837 150.52172852 136.04621124 C148.77342511 136.04892881 147.02508094 136.04157837 145.27685547 136.02484894 C142.60308051 136.00343538 139.93199232 136.024654 137.25830078 136.05023956 C135.55777403 136.04759626 133.85724894 136.04247122 132.15673828 136.03461456 C131.35872803 136.04271149 130.56071777 136.05080841 129.73852539 136.0591507 C126.305959 136.00125689 123.99127497 135.75327132 121.05908203 133.90766144 C119.01123277 130.54645819 119.16904353 128.38974827 119.59423828 124.50336456 C120.60400391 121.24604034 120.60400391 121.24604034 122.00048828 117.94867706 C122.49677734 116.75758331 122.99306641 115.56648956 123.50439453 114.33930206 C124.03390671 113.10213631 124.56385984 111.8651592 125.09423828 110.62836456 C125.62536256 109.36844315 126.15532164 108.10802987 126.68408203 106.84711456 C127.64458827 104.55686851 128.61081685 102.26900836 129.58447266 99.98432159 C130.65706801 97.79542371 130.65706801 97.79542371 130.59423828 96.50336456 C118.71423828 96.50336456 106.83423828 96.50336456 94.59423828 96.50336456 Z M30.59423828 112.50336456 C30.59423828 124.38336456 30.59423828 136.26336456 30.59423828 148.50336456 C35.96419157 143.95408855 35.96419157 143.95408855 41.05102539 139.17597198 C41.63109848 138.59905106 42.21117157 138.02213013 42.80882263 137.42772675 C43.40703323 136.82749191 44.00524384 136.22725708 44.62158203 135.60883331 C45.2553627 134.97600937 45.88914337 134.34318542 46.54212952 133.691185 C47.86679799 132.36719167 49.19022606 131.04195621 50.51245117 129.71552277 C52.54703586 127.67552629 54.586976 125.64099281 56.62744141 123.60688019 C57.91747619 122.31618556 59.20720125 121.02518127 60.49658203 119.73383331 C61.41515236 118.81829933 61.41515236 118.81829933 62.35227966 117.88426971 C65.23891304 115.56435944 65.23891304 115.56435944 66.59423828 112.50336456 C54.71423828 112.50336456 42.83423828 112.50336456 30.59423828 112.50336456 Z M346.59423828 112.50336456 C351.1435143 117.87331785 351.1435143 117.87331785 355.92163086 122.96015167 C356.49855179 123.54022476 357.07547272 124.12029785 357.6698761 124.71794891 C358.27011093 125.31615952 358.87034576 125.91437012 359.48876953 126.53070831 C360.12159348 127.16448898 360.75441742 127.79826965 361.40641785 128.4512558 C362.73041118 129.77592428 364.05564664 131.09935234 365.38208008 132.42157745 C367.42207655 134.45616215 369.45661003 136.49610228 371.49072266 138.53656769 C372.78141729 139.82660247 374.07242157 141.11632753 375.36376953 142.40570831 C375.97412552 143.01808853 376.58448151 143.63046875 377.21333313 144.26140594 C379.5332434 147.14803932 379.5332434 147.14803932 382.59423828 148.50336456 C382.59423828 136.62336456 382.59423828 124.74336456 382.59423828 112.50336456 C370.71423828 112.50336456 358.83423828 112.50336456 346.59423828 112.50336456 Z M74.26782227 127.70038605 C73.56717148 128.39788467 72.86652069 129.0953833 72.14463806 129.81401825 C71.38421707 130.57646347 70.62379608 131.33890869 69.84033203 132.12445831 C69.06488541 132.89894821 68.28943878 133.67343811 67.49049377 134.4713974 C65.84749298 136.11371603 64.20576101 137.75730481 62.56518555 139.4020462 C60.042779 141.92980044 57.51509732 144.4521906 54.98681641 146.97406769 C53.39600086 148.56554401 51.80549553 150.15733049 50.21533203 151.74945831 C49.0716642 152.8900898 49.0716642 152.8900898 47.90489197 154.05376434 C47.20739334 154.75441513 46.50989471 155.45506592 45.79125977 156.17694855 C45.17250473 156.79649918 44.55374969 157.4160498 43.91624451 158.05437469 C42.48190568 159.29957939 42.48190568 159.29957939 42.59423828 160.50336456 C54.47423828 160.50336456 66.35423828 160.50336456 78.59423828 160.50336456 C78.59423828 148.62336456 78.59423828 136.74336456 78.59423828 124.50336456 C76.72438007 124.50336456 75.51460344 126.45520592 74.26782227 127.70038605 Z M334.59423828 124.50336456 C334.59423828 136.38336456 334.59423828 148.26336456 334.59423828 160.50336456 C346.47423828 160.50336456 358.35423828 160.50336456 370.59423828 160.50336456 C366.04496227 155.13341128 366.04496227 155.13341128 361.2668457 150.04657745 C360.68992477 149.46650436 360.11300385 148.88643127 359.51860046 148.28878021 C358.91836563 147.69056961 358.3181308 147.09235901 357.69970703 146.47602081 C357.06688309 145.84224014 356.43405914 145.20845947 355.78205872 144.55547333 C354.45806539 143.23080485 353.13282992 141.90737678 351.80639648 140.58515167 C349.76640001 138.55056698 347.73186653 136.51062685 345.69775391 134.47016144 C344.40705928 133.18012666 343.11605499 131.8904016 341.82470703 130.60102081 C341.21435104 129.98864059 340.60399506 129.37626038 339.97514343 128.74532318 C337.65523316 125.85868981 337.65523316 125.85868981 334.59423828 124.50336456 Z M30.59423828 176.50336456 C30.59423828 184.42336456 30.59423828 192.34336456 30.59423828 200.50336456 C39.15992983 201.65137002 39.15992983 201.65137002 46.82324219 198.36322784 C50.08608286 195.48592959 52.99361976 192.28990474 55.90673828 189.06586456 C56.95251315 187.96335101 58.00132489 186.86370972 59.05322266 185.76703644 C63.92363076 181.54829609 63.92363076 181.54829609 66.59423828 176.50336456 C54.71423828 176.50336456 42.83423828 176.50336456 30.59423828 176.50336456 Z M346.59423828 176.50336456 C358.00071763 191.95227035 358.00071763 191.95227035 373.59423828 201.60492706 C377.49730761 201.66961378 377.49730761 201.66961378 382.59423828 200.50336456 C382.59423828 192.58336456 382.59423828 184.66336456 382.59423828 176.50336456 C370.71423828 176.50336456 358.83423828 176.50336456 346.59423828 176.50336456 Z M68.40673828 197.00336456 C67.1005957 198.19059113 67.1005957 198.19059113 65.76806641 199.40180206 C61.30673087 203.34509543 61.30673087 203.34509543 59.46826172 208.68891144 C60.00214546 210.74470422 60.73522304 212.56431633 61.59423828 214.50336456 C62.05923782 217.83732353 62.31444298 221.14582094 62.59423828 224.50336456 C67.87423828 224.50336456 73.15423828 224.50336456 78.59423828 224.50336456 C78.59423828 212.62336456 78.59423828 200.74336456 78.59423828 188.50336456 C75.32444998 188.50336456 70.65954081 194.84689342 68.40673828 197.00336456 Z M334.59423828 188.50336456 C334.59423828 200.38336456 334.59423828 212.26336456 334.59423828 224.50336456 C339.87423828 224.50336456 345.15423828 224.50336456 350.59423828 224.50336456 C350.90361328 222.27586456 351.21298828 220.04836456 351.53173828 217.75336456 C352.50872586 210.71905402 352.50872586 210.71905402 353.36547852 208.55805206 C353.84405558 206.35203245 353.84405558 206.35203245 352.07128906 204.39691925 C351.31831543 203.66376495 350.5653418 202.93061066 349.78955078 202.17523956 C348.97873047 201.37602081 348.16791016 200.57680206 347.33251953 199.75336456 C346.47013672 198.92836456 345.60775391 198.10336456 344.71923828 197.25336456 C343.86458984 196.41289581 343.00994141 195.57242706 342.12939453 194.70648956 C338.79247521 190.74365729 338.79247521 190.74365729 334.59423828 188.50336456 Z M62.59423828 240.50336456 C62.92423828 241.82336456 63.25423828 243.14336456 63.59423828 244.50336456 C64.58423828 243.18336456 65.57423828 241.86336456 66.59423828 240.50336456 C65.27423828 240.50336456 63.95423828 240.50336456 62.59423828 240.50336456 Z M346.59423828 240.50336456 C347.91423828 241.82336456 349.23423828 243.14336456 350.59423828 244.50336456 C350.59423828 243.18336456 350.59423828 241.86336456 350.59423828 240.50336456 C349.27423828 240.50336456 347.95423828 240.50336456 346.59423828 240.50336456 Z M67.91040039 260.09931183 C61.97499698 266.40932499 61.40359689 272.45797024 61.58450317 280.93344879 C61.77195793 286.14282213 62.12325886 291.30863603 62.59423828 296.50336456 C67.87423828 296.50336456 73.15423828 296.50336456 78.59423828 296.50336456 C78.59423828 281.98336456 78.59423828 267.46336456 78.59423828 252.50336456 C74.92192286 252.50336456 70.45672458 257.80852852 67.91040039 260.09931183 Z " fill="#000000" transform="translate(49.40576171875,75.49663543701172)"/>
<path d="M0 0 C137.94 0 275.88 0 418 0 C418 10.89 418 21.78 418 33 C413.16939941 33.02187378 413.16939941 33.02187378 408.24121094 33.04418945 C397.61205863 33.09448131 386.98305365 33.16106676 376.35404587 33.23571491 C369.90840652 33.2804806 363.4628313 33.31972315 357.01708984 33.34643555 C350.79892187 33.3724065 344.58099982 33.41276507 338.3629837 33.46318626 C335.98831486 33.47989699 333.61360344 33.49138499 331.23888397 33.49761391 C327.91778152 33.5072091 324.59731426 33.53521419 321.27636719 33.56762695 C320.29021927 33.56619186 319.30407135 33.56475677 318.28804016 33.5632782 C317.38222702 33.57581635 316.47641388 33.58835449 315.54315186 33.60127258 C314.36510042 33.60818603 314.36510042 33.60818603 313.16324997 33.61523914 C310.39085894 34.1083433 309.01061456 35.04655004 307 37 C306.38404819 41.5722931 306.38404819 41.5722931 308.140625 45.67578125 C310.77997537 47.55548666 312.98025255 47.51506734 316.1875 47.6875 C318.105625 47.790625 320.02375 47.89375 322 48 C322 53.61 322 59.22 322 65 C247.42 65 172.84 65 96 65 C96 59.39 96 53.78 96 48 C98.34861649 47.99191315 100.69723297 47.98382629 103.11701965 47.97549438 C125.2050726 47.89849658 147.29306248 47.81056125 169.38103199 47.71247292 C180.7378129 47.66230434 192.09458643 47.61586196 203.45141602 47.578125 C213.3474966 47.5452325 223.24352067 47.50541657 233.13953894 47.45720994 C238.38168236 47.43191764 243.62378815 47.41014447 248.86597633 47.39665604 C253.79645263 47.38386042 258.72680008 47.36183321 263.65720558 47.33261681 C265.47005829 47.32352142 267.28293176 47.31784625 269.09580612 47.31578636 C271.56469489 47.31247763 274.03321524 47.29703827 276.50202942 47.2784729 C277.22478917 47.28040763 277.94754893 47.28234237 278.6922105 47.28433573 C282.35213169 47.24299042 283.86630202 47.08913199 287 45 C287.53073253 40.92789115 287.53073253 40.92789115 287 37 C284.04953236 34.26306022 282.07193865 33.62405296 278.0880928 33.61523914 C277.09432766 33.6057826 276.10056252 33.59632606 275.07668328 33.58658296 C273.98719628 33.59143053 272.89770928 33.59627811 271.77520752 33.60127258 C270.6161445 33.59462576 269.45708148 33.58797893 268.26289535 33.58113068 C265.04519211 33.56568927 261.82779956 33.56366553 258.61007142 33.56726015 C255.14040525 33.5678832 251.67081695 33.55127147 248.20118713 33.53674316 C242.18966346 33.51393469 236.17819781 33.50206819 230.16663361 33.49761391 C221.47491607 33.49115797 212.78330354 33.46823042 204.09162828 33.44127061 C189.9902995 33.39797902 175.88897513 33.36802583 161.78759766 33.34643555 C148.08868235 33.32543296 134.38980317 33.29816417 120.69091797 33.26245117 C119.84664911 33.26025235 119.00238026 33.25805352 118.1325275 33.25578807 C113.8971176 33.24471859 109.66170803 33.23352575 105.42629862 33.22227156 C70.28422843 33.12905287 35.14214444 33.05829171 0 33 C0 22.11 0 11.22 0 0 Z " fill="#B7B1B7" transform="translate(47,91)"/>
<path d="M0 0 C5.61 0 11.22 0 17 0 C17.66 1.98 18.32 3.96 19 6 C22.39385348 7.13128449 24.97400668 7.1307482 28.55362225 7.1386652 C29.56170851 7.14292853 29.56170851 7.14292853 30.59016016 7.14727798 C32.85827064 7.15564731 35.1263302 7.15689494 37.39445496 7.15821838 C39.0304663 7.16278221 40.66647649 7.16778197 42.30248529 7.17318195 C46.81072791 7.18679288 51.31896297 7.19418995 55.8272208 7.20060861 C60.6840732 7.2085996 65.5409098 7.22230184 70.39775085 7.23532104 C78.81675409 7.25710229 87.23575891 7.27524074 95.65477562 7.29092598 C107.82735798 7.31360961 119.99992285 7.34175452 132.1724904 7.37124526 C151.92024305 7.41893966 171.66800284 7.46219883 191.41577148 7.50268555 C210.60230058 7.54203107 229.78882332 7.58345503 248.9753418 7.62768555 C250.15740388 7.63040982 251.33946595 7.63313409 252.55734809 7.63594092 C258.48722849 7.64962024 264.41710878 7.66334054 270.34698904 7.67708123 C319.56464627 7.79107504 368.78231738 7.89760541 418 8 C418 18.89 418 29.78 418 41 C269.5 41 121 41 -32 41 C-32 30.11 -32 19.22 -32 8 C-18.75 7.75 -18.75 7.75 -14.58886719 7.70214844 C-12.95933105 7.65622559 -12.95933105 7.65622559 -11.296875 7.609375 C-10.18666992 7.58842773 -9.07646484 7.56748047 -7.93261719 7.54589844 C-4.36863368 6.88247294 -3.19835092 5.831229 -1 3 C-0.67 2.01 -0.34 1.02 0 0 Z " fill="#9D949D" transform="translate(63,380)"/>
<path d="M0 0 C5.61 0 11.22 0 17 0 C17.66 1.98 18.32 3.96 19 6 C22.39385348 7.13128449 24.97400668 7.1307482 28.55362225 7.1386652 C29.56170851 7.14292853 29.56170851 7.14292853 30.59016016 7.14727798 C32.85827064 7.15564731 35.1263302 7.15689494 37.39445496 7.15821838 C39.0304663 7.16278221 40.66647649 7.16778197 42.30248529 7.17318195 C46.81072791 7.18679288 51.31896297 7.19418995 55.8272208 7.20060861 C60.6840732 7.2085996 65.5409098 7.22230184 70.39775085 7.23532104 C78.81675409 7.25710229 87.23575891 7.27524074 95.65477562 7.29092598 C107.82735798 7.31360961 119.99992285 7.34175452 132.1724904 7.37124526 C151.92024305 7.41893966 171.66800284 7.46219883 191.41577148 7.50268555 C210.60230058 7.54203107 229.78882332 7.58345503 248.9753418 7.62768555 C250.15740388 7.63040982 251.33946595 7.63313409 252.55734809 7.63594092 C258.48722849 7.64962024 264.41710878 7.66334054 270.34698904 7.67708123 C319.56464615 7.79107504 368.78231709 7.89780435 418 8 C418 13.28 418 18.56 418 24 C365.14025049 24.09122202 312.28051097 24.16202405 259.4206982 24.20426132 C253.18215804 24.20926423 246.94361805 24.21444151 240.70507812 24.21972656 C238.84208223 24.22130043 238.84208223 24.22130043 236.94145006 24.22290608 C216.823 24.24031815 196.7045956 24.27186028 176.58617264 24.30861118 C155.94759038 24.34599825 135.30903205 24.36823113 114.67041731 24.37635398 C101.93209807 24.38184637 89.19390786 24.39920269 76.45562834 24.43166587 C67.72419713 24.45278615 58.99283277 24.45920567 50.26137787 24.45400551 C45.22143508 24.45143988 40.18171799 24.45541273 35.14181519 24.4768219 C30.52755536 24.49628001 25.91367314 24.49727476 21.29939598 24.48359558 C19.63034726 24.4819048 17.96127503 24.48698528 16.29227263 24.49953273 C-0.73919189 24.6201265 -0.73919189 24.6201265 -8.27734375 18 C-8.82519531 17.34 -9.37304688 16.68 -9.9375 16 C-10.78634766 15.01 -10.78634766 15.01 -11.65234375 14 C-13.02309697 11.96572276 -13.57705395 10.39847889 -14 8 C-13.09507813 7.96132813 -13.09507813 7.96132813 -12.171875 7.921875 C-6.97639492 7.5890327 -6.97639492 7.5890327 -2.5 5.125 C-0.8331503 2.98068723 -0.8331503 2.98068723 0 0 Z " fill="#AFA7AE" transform="translate(63,380)"/>
<path d="M0 0 C132.33 0 264.66 0 401 0 C401 5.28 401 10.56 401 16 C351.57990286 16.11403442 302.1598224 16.20253362 252.73961949 16.25532665 C246.90665366 16.26158027 241.0736881 16.26805187 235.24072266 16.2746582 C234.07947199 16.27596976 232.91822133 16.27728131 231.72178125 16.2786326 C212.91278652 16.30039603 194.1038681 16.33982276 175.29491866 16.38576398 C155.99879304 16.43250246 136.70270742 16.46028989 117.40652752 16.47044247 C105.49732606 16.47730702 93.58834031 16.49899711 81.67920524 16.53958233 C73.51543354 16.56598846 65.35177355 16.5740058 57.18796223 16.56750689 C52.47605313 16.5643007 47.76452128 16.56925552 43.05267906 16.59602737 C38.73810724 16.6203631 34.42416627 16.62158565 30.10956538 16.60449447 C28.54952833 16.60238223 26.98945189 16.60872244 25.42949235 16.62441591 C15.75903621 16.7160381 9.19013699 16.02271322 2.0625 9.125 C1 7 1 7 0 0 Z " fill="#C8C4C8" transform="translate(64,92)"/>
<path d="M0 0 C16.17 0 32.34 0 49 0 C49 27.06 49 54.12 49 82 C43.06 82.495 43.06 82.495 37 83 C34.76338207 85.95099718 34.76338207 85.95099718 33 89 C30.13883942 89.89463793 27.41163048 89.79542203 24.4375 89.6875 C23.66986328 89.70232422 22.90222656 89.71714844 22.11132812 89.73242188 C19.87109375 89.69921875 19.87109375 89.69921875 16 89 C14.03515625 86.51953125 14.03515625 86.51953125 13 84 C9.89982079 80.89982079 4.36917099 82.36409758 0 82 C0 54.94 0 27.88 0 0 Z " fill="#4C3C4B" transform="translate(47,291)"/>
<path d="M0 0 C16.17 0 32.34 0 49 0 C49 27.06 49 54.12 49 82 C32.83 82 16.66 82 0 82 C0 54.94 0 27.88 0 0 Z " fill="#4C3B4B" transform="translate(416,291)"/>
<path d="M0 0 C0.33 0.99 0.66 1.98 1 3 C6.28 3 11.56 3 17 3 C17.33 2.34 17.66 1.68 18 1 C18.433125 2.7015625 18.433125 2.7015625 18.875 4.4375 C19.24625 5.613125 19.6175 6.78875 20 8 C22.70183055 9.35091528 25.11808206 9.33858058 28.125 9.5625 C30.06375 9.706875 32.0025 9.85125 34 10 C34 15.61 34 21.22 34 27 C-40.58 27 -115.16 27 -192 27 C-192 21.39 -192 15.78 -192 10 C-189.65138351 9.99191315 -187.30276703 9.98382629 -184.88298035 9.97549438 C-162.7949274 9.89849658 -140.70693752 9.81056125 -118.61896801 9.71247292 C-107.2621871 9.66230434 -95.90541357 9.61586196 -84.54858398 9.578125 C-74.6525034 9.5452325 -64.75647933 9.50541657 -54.86046106 9.45720994 C-49.61831764 9.43191764 -44.37621185 9.41014447 -39.13402367 9.39665604 C-34.20354737 9.38386042 -29.27319992 9.36183321 -24.34279442 9.33261681 C-22.52994171 9.32352142 -20.71706824 9.31784625 -18.90419388 9.31578636 C-16.43530511 9.31247763 -13.96678476 9.29703827 -11.49797058 9.2784729 C-10.77521083 9.28040763 -10.05245107 9.28234237 -9.3077895 9.28433573 C-5.64786831 9.24299042 -4.13369798 9.08913199 -1 7 C-0.26393501 3.43230448 -0.26393501 3.43230448 0 0 Z " fill="#9B929B" transform="translate(335,129)"/>
<path d="M0 0 C53.46 0 106.92 0 162 0 C162 5.61 162 11.22 162 17 C108.54 17 55.08 17 0 17 C0 11.39 0 5.78 0 0 Z " fill="#9E959E" transform="translate(175,356)"/>
<path d="M0 0 C10.89 0 21.78 0 33 0 C33 21.12 33 42.24 33 64 C26.4 64 19.8 64 13 64 C13.66 62.35 14.32 60.7 15 59 C14.78138079 53.9488756 14.78138079 53.9488756 12 50 C7.76036719 49.68595313 4.63465602 49.67382015 1 52 C-0.3308911 49.33821779 -0.11268993 47.31260604 -0.09765625 44.3359375 C-0.09443359 43.21445312 -0.09121094 42.09296875 -0.08789062 40.9375 C-0.07951172 39.761875 -0.07113281 38.58625 -0.0625 37.375 C-0.05798828 36.19164062 -0.05347656 35.00828125 -0.04882812 33.7890625 C-0.03701467 30.85932493 -0.02054258 27.92968728 0 25 C0.598125 25.80695313 1.19625 26.61390625 1.8125 27.4453125 C3.80063134 30.2386643 3.80063134 30.2386643 7 30.875 C9.69394137 30.98724756 11.45083515 30.71420567 14 30 C14.24954005 28.56589632 14.47392642 27.12739928 14.6875 25.6875 C14.81511719 24.88699219 14.94273437 24.08648437 15.07421875 23.26171875 C15.20708117 20.94506801 15.20708117 20.94506801 13.73828125 19.23046875 C10.87582976 17.20423904 8.38234094 17.63760633 5 18 C3.14397385 19.27159652 3.14397385 19.27159652 2 21 C1.34 21.66 0.68 22.32 0 23 C0 15.41 0 7.82 0 0 Z " fill="#60515F" transform="translate(432,292)"/>
<path d="M0 0 C10.56 0 21.12 0 32 0 C32 21.12 32 42.24 32 64 C25.07 64 18.14 64 11 64 C11.99 62.35 12.98 60.7 14 59 C14.37902038 55.84149685 14.51813279 53.91435199 12.9375 51.125 C9.88405803 49.35203369 7.45262038 49.63656628 4 50 C2.68 50.99 1.36 51.98 0 53 C0 45.08 0 37.16 0 29 C2.33831751 29.58457938 4.67353175 30.18241485 7 30.8125 C10.05436892 31.30490024 10.05436892 31.30490024 12.375 29.4375 C14.43774093 26.3433886 14.54400387 24.65259739 14 21 C13.06402685 18.98048938 13.06402685 18.98048938 11 18 C5.69682873 17.42147223 4.4110731 17.69169517 0 21 C0 14.07 0 7.14 0 0 Z " fill="#60515F" transform="translate(64,292)"/>
<path d="M0 0 C5.61 0 11.22 0 17 0 C17 5.28 17 10.56 17 16 C64.52 16 112.04 16 161 16 C161 10.72 161 5.44 161 0 C161.33 0 161.66 0 162 0 C162 5.61 162 11.22 162 17 C108.54 17 55.08 17 0 17 C0 11.39 0 5.78 0 0 Z " fill="#7D757D" transform="translate(175,356)"/>
<path d="M0 0 C2.66106976 2.38813953 3.77849624 4.01553885 4.5625 7.5 C3.70956484 11.29082295 2.11459264 12.74689043 -1 15 C-4.85210127 15.06641554 -6.99848005 14.87229157 -9.9375 12.3125 C-11.33817538 9.26397123 -11.4842732 7.32073048 -11 4 C-8.07075041 -0.45245938 -5.11843736 -0.822606 0 0 Z " fill="#030303" transform="translate(444,341)"/>
<path d="M0 0 C2.4375 1.625 2.4375 1.625 4 4 C4.5625 6.9375 4.5625 6.9375 4 10 C1.70985284 13.0099077 0.20864386 14.69783903 -3.5 15.625 C-7.25999106 14.68500224 -8.7473603 13.11394311 -11 10 C-11 6.45638757 -10.65850044 4.13408409 -8.875 1.0625 C-5.81547541 -0.6712306 -3.43182475 -0.42145216 0 0 Z " fill="#030303" transform="translate(75,341)"/>
<path d="M0 0 C2.5 1.5625 2.5 1.5625 4 4 C3.93906499 7.4732957 3.6880626 9.91358536 1.8125 12.875 C-0.91151948 14.56577071 -2.78466262 15 -6 15 C-9.40406682 12.55795207 -10.7998726 11.08958249 -11.5625 6.9375 C-11 4 -11 4 -9.4375 1.625 C-6.06489221 -0.62340519 -3.97487617 -0.56783945 0 0 Z " fill="#040304" transform="translate(444,309)"/>
<path d="M0 0 C2.4375 1.625 2.4375 1.625 4 4 C4.5625 6.9375 4.5625 6.9375 4 10 C1.875 12.9375 1.875 12.9375 -1 15 C-4.99335725 15.16299417 -6.46739675 14.47797727 -9.4375 11.8125 C-11 9 -11 9 -10.9375 5.875 C-8.96256644 -0.18146292 -6.27169804 -0.77020853 0 0 Z " fill="#030203" transform="translate(75,309)"/>
<path d="M0 0 C0.66 0 1.32 0 2 0 C3.32 3.63 4.64 7.26 6 11 C3.03 11 0.06 11 -3 11 C-2.44894091 7.0507432 -1.61064629 3.65079826 0 0 Z " fill="#EDD06E" transform="translate(319,185)"/>
<path d="M0 0 C0.66 0 1.32 0 2 0 C2.50615298 1.26839526 3.00469099 2.53983102 3.5 3.8125 C3.91765625 4.87404297 3.91765625 4.87404297 4.34375 5.95703125 C5 8 5 8 5 11 C2.03 11 -0.94 11 -4 11 C-2.68 7.37 -1.36 3.74 0 0 Z " fill="#EDD06E" transform="translate(191,185)"/>
<path d="M0 0 C0.66 0 1.32 0 2 0 C5 6.5 5 6.5 5 11 C2.36 11 -0.28 11 -3 11 C-2.44894091 7.0507432 -1.61064629 3.65079826 0 0 Z " fill="#EED16F" transform="translate(255,185)"/>
</svg>